<svg version="1.1" id="Layer_1" xmlns="http://www.w3.org/2000/svg" xmlns:xlink="http://www.w3.org/1999/xlink" x="0px" y="0px"
	 width="100%" viewBox="250 0 524 896" enable-background="new 0 0 1024 896" xml:space="preserve">
<path fill="#000000" opacity="1.000000" stroke="none" 
	d="
M406.279419,693.463379 
	C402.117584,686.594116 403.510010,679.138306 402.930206,672.137878 
	C400.755127,645.876648 392.528748,621.778015 379.012482,599.281921 
	C371.681885,587.081238 362.409454,576.354553 353.871002,565.070801 
	C329.761902,533.210144 314.689514,497.552155 312.014801,457.662933 
	C306.791382,379.764343 335.172302,317.051117 399.586670,271.767761 
	C429.176758,250.965897 462.383392,240.002335 498.405853,237.598831 
	C556.815002,233.701645 607.787598,251.568970 650.856506,291.060669 
	C687.185791,324.372559 707.593689,366.075226 713.402527,414.938202 
	C719.201904,463.721741 708.884399,508.923004 682.715698,550.464722 
	C674.978088,562.747803 665.306213,573.622864 656.649536,585.238831 
	C636.754211,611.935730 624.984680,641.693726 623.156494,675.143860 
	C622.947693,678.965210 622.630615,682.782715 622.273376,686.593567 
	C621.541870,694.398254 615.756714,699.352234 607.150757,699.363281 
	C574.655579,699.404846 542.160278,699.384460 509.665009,699.383728 
	C479.502747,699.382996 449.340393,699.338379 419.178314,699.412720 
	C414.005096,699.425415 409.688934,697.998779 406.279419,693.463379 
M571.532715,274.038483 
	C546.151184,265.081390 520.099548,262.094940 493.348389,265.190094 
	C453.873535,269.757416 419.756958,286.068756 391.424194,313.596100 
	C350.430054,353.424835 333.585236,402.406311 339.234100,459.120605 
	C342.199402,488.891876 352.597565,516.015564 369.757538,540.517578 
	C379.885803,554.979248 391.635437,568.258972 400.890198,583.365417 
	C416.700897,609.173096 427.059326,636.825684 429.263153,667.203125 
	C429.567627,671.400208 431.716461,671.997986 435.154877,671.993713 
	C487.153442,671.928894 539.152161,671.890869 591.150635,671.961853 
	C595.324890,671.967590 596.515747,670.258789 596.812561,666.338074 
	C597.288391,660.051331 598.119629,653.753723 599.341736,647.567627 
	C606.189026,612.907166 622.551331,582.925171 644.738770,555.820374 
	C668.389404,526.928162 683.844604,494.623322 687.071106,456.854675 
	C689.931763,423.368317 685.250061,391.379303 669.992493,361.304779 
	C648.824829,319.580902 615.629211,291.180237 571.532715,274.038483 
z"/>
<path fill="#000000" opacity="1.000000" stroke="none" 
	d="
M575.996765,770.059204 
	C580.662354,770.075500 584.833557,770.222229 588.993652,770.068481 
	C592.533997,769.937744 593.656006,771.414978 593.373596,774.860657 
	C591.613525,796.335571 581.470154,813.258850 564.443909,825.772705 
	C526.835571,853.413940 473.551971,845.572021 445.133057,808.627991 
	C437.829468,799.133484 434.074127,788.239746 432.710815,776.415283 
	C432.232880,772.270020 433.383942,770.568237 438.021698,770.467773 
	C483.846222,769.474976 529.673584,770.380066 575.996765,770.059204 
M478.328339,796.963501 
	C477.264526,797.183289 475.948456,796.726074 475.290588,798.067078 
	C496.310547,820.550781 537.092590,817.486267 551.758850,796.950806 
	C527.295959,796.950806 503.221344,796.950806 478.328339,796.963501 
z"/>
<path fill="#000000" opacity="1.000000" stroke="none" 
	d="
M590.997253,723.738037 
	C595.658569,723.746216 599.827515,723.605774 603.981079,723.797668 
	C610.880005,724.116638 616.243774,729.752136 616.243896,736.431091 
	C616.244019,743.353210 611.134277,748.404663 603.697266,748.428467 
	C544.777100,748.616882 485.856750,748.749451 426.936401,748.858948 
	C424.450317,748.863525 421.927124,748.670410 419.484528,748.223328 
	C414.186584,747.253723 410.641632,743.070251 410.003021,737.380554 
	C409.445282,732.411133 412.367828,727.207275 416.886383,725.109497 
	C419.849121,723.733948 422.995148,723.719238 426.177063,723.720520 
	C480.950684,723.742432 535.724304,723.737671 590.997253,723.738037 
z"/>
<path fill="#000000" opacity="1.000000" stroke="none" 
	d="
M500.803986,118.449089 
	C502.650818,109.673767 507.228394,105.916275 514.534973,106.741989 
	C521.329529,107.509834 525.257324,112.489639 525.268188,120.594009 
	C525.302368,146.051483 525.294067,171.509018 525.278992,196.966537 
	C525.273865,205.675980 520.653748,211.121933 513.326904,211.158386 
	C505.923431,211.195221 500.810333,205.460876 500.792877,196.768219 
	C500.740662,170.811661 500.782745,144.854904 500.803986,118.449089 
z"/>
<path fill="#000000" opacity="1.000000" stroke="none" 
	d="
M319.961182,190.455963 
	C322.615784,191.432709 324.162994,193.211349 325.808014,194.848648 
	C339.835236,208.810028 353.858887,222.775024 367.871002,236.751541 
	C373.969391,242.834442 374.542389,250.090927 369.375336,255.298874 
	C364.253906,260.460815 356.767914,260.105042 350.730652,254.130539 
	C336.427032,239.975525 322.226746,225.716095 307.982269,211.501358 
	C302.600983,206.131317 301.553162,201.346405 304.576019,195.886963 
	C307.500885,190.604538 312.251770,188.837524 319.961182,190.455963 
z"/>
<path fill="#000000" opacity="1.000000" stroke="none" 
	d="
M707.348389,221.348999 
	C696.388184,232.308533 685.646545,242.987030 674.997131,253.756760 
	C671.668701,257.122833 667.933411,259.438629 663.086304,258.836761 
	C658.493408,258.266418 654.792419,255.933212 653.255310,251.417007 
	C651.737122,246.956528 651.988892,242.423004 655.440918,238.794388 
	C660.486755,233.490524 665.723206,228.367645 670.897461,223.186569 
	C680.541504,213.529755 690.171875,203.859085 699.861633,194.248337 
	C705.493774,188.662170 713.354675,188.109344 718.082947,192.837479 
	C723.097046,197.851410 722.917969,205.186813 717.437744,211.168228 
	C714.292175,214.601532 710.889526,217.799362 707.348389,221.348999 
z"/>
<path fill="#000000" opacity="1.000000" stroke="none" 
	d="
M621.426514,456.773438 
	C623.706909,460.091980 624.340454,463.440979 624.316956,467.040344 
	C624.251648,477.037689 624.389587,487.036896 624.259583,497.032928 
	C624.220154,500.070709 625.050293,502.316071 627.257324,504.530060 
	C636.488342,513.790222 637.544373,526.076599 630.312317,536.849426 
	C623.850342,546.475098 611.140198,550.230713 599.725525,545.626404 
	C596.815308,544.452515 594.604980,544.494568 591.866638,546.212158 
	C575.356445,556.568115 558.756775,566.783386 542.093994,576.892395 
	C539.522644,578.452393 538.452332,580.170471 538.237000,583.199829 
	C537.332153,595.930542 526.661865,605.611633 513.439392,606.042969 
	C501.775116,606.423462 490.470337,597.308350 488.791260,585.412415 
	C488.090393,580.447083 486.052002,577.518677 481.787170,574.999329 
	C465.868958,565.596191 450.143982,555.863037 434.436096,546.109375 
	C431.733368,544.431091 429.451721,544.297852 426.527527,545.467773 
	C413.859344,550.536133 399.907959,545.519897 393.962097,533.970215 
	C388.055603,522.497009 391.638397,509.074707 402.835297,501.524811 
	C405.062439,500.023071 405.882111,498.373718 405.874237,495.786835 
	C405.807861,473.958618 405.800873,452.129974 405.874359,430.301819 
	C405.883728,427.520447 404.866486,425.783020 402.660034,424.070007 
	C392.395844,416.101379 389.614777,402.321136 395.824615,391.378052 
	C401.949951,380.583893 414.721588,376.106201 426.959869,380.757538 
	C429.810760,381.841095 431.986725,381.537964 434.429047,380.012573 
	C451.382477,369.424194 468.363037,358.878906 485.371826,348.379730 
	C487.551300,347.034424 488.546814,345.412170 488.751404,342.766113 
	C489.836151,328.732788 499.823761,319.538696 513.772705,319.473816 
	C527.123230,319.411743 537.031494,328.737793 538.195068,342.766968 
	C538.418884,345.465698 539.550537,347.010468 541.679077,348.318909 
	C558.850403,358.874420 576.038818,369.403412 593.110291,380.118652 
	C595.962708,381.909088 598.332581,381.243042 601.104309,380.408966 
	C611.170959,377.379700 622.027405,380.478851 628.166199,388.486664 
	C634.604553,396.885193 635.555847,406.166199 630.902100,415.719421 
	C626.039062,425.701996 615.410767,430.908264 604.263428,429.112915 
	C593.410156,427.364960 584.651428,418.801270 583.826965,407.540131 
	C583.381287,401.452148 580.895386,398.313904 575.896179,395.344238 
	C560.862488,386.413788 546.135925,376.962830 531.369995,367.588226 
	C528.854553,365.991211 526.878967,365.786102 524.082153,367.131439 
	C517.089417,370.495209 509.810333,370.219299 502.820801,367.036591 
	C500.228149,365.856018 498.422760,365.915039 495.989471,367.451080 
	C479.791718,377.676086 463.515350,387.778564 447.166626,397.760559 
	C444.279236,399.523438 443.142975,401.540283 442.957092,404.942383 
	C442.496002,413.381805 439.035034,420.431671 431.511536,424.862030 
	C429.019165,426.329742 428.152039,428.120331 428.161804,430.917206 
	C428.237396,452.578796 428.228455,474.240814 428.168152,495.902527 
	C428.160980,498.470245 428.969757,500.236694 431.110565,501.773743 
	C437.226257,506.164764 441.019409,512.050171 441.515686,519.723145 
	C441.777557,523.771484 443.827911,526.124573 447.317474,528.211304 
	C463.614838,537.957092 479.753632,547.969910 495.867950,558.017517 
	C498.265167,559.512268 500.194397,559.786133 502.758789,558.464844 
	C509.742188,554.866760 516.924133,555.085083 523.918335,558.417480 
	C526.464783,559.630798 528.375793,559.607849 530.817688,558.080994 
	C547.201538,547.836731 563.662476,537.714783 580.160034,527.654297 
	C582.648987,526.136414 584.095581,524.388123 584.254272,521.364990 
	C584.680359,513.247620 588.029785,506.599030 594.802185,501.894379 
	C596.521606,500.699951 596.978455,499.107910 597.002808,497.167786 
	C597.063416,492.338104 597.016724,487.496490 597.360413,482.684448 
	C597.620178,479.048401 596.110229,478.147186 592.740234,478.187927 
	C580.411316,478.336945 568.079651,478.255615 555.749023,478.255768 
	C547.084290,478.255859 538.418396,478.331482 529.755066,478.219208 
	C521.112183,478.107239 514.995239,472.627502 514.947693,465.184570 
	C514.896606,457.188446 520.838623,451.712769 529.727844,451.702515 
	C556.388672,451.671722 583.049622,451.728973 609.710205,451.639160 
	C614.332397,451.623566 618.249146,452.746155 621.426514,456.773438 
z"/>
</svg>